<?xml version="1.0" standalone="no"?>
<!DOCTYPE svg PUBLIC "-//W3C//DTD SVG 20010904//EN"
 "http://www.w3.org/TR/2001/REC-SVG-20010904/DTD/svg10.dtd">
<svg version="1.0" xmlns="http://www.w3.org/2000/svg"
 width="512.000000pt" height="512.000000pt" viewBox="0 0 512.000000 512.000000"
 preserveAspectRatio="xMidYMid meet">
<metadata>
Created by potrace 1.14, written by Peter Selinger 2001-2017
</metadata>
<g transform="translate(0.000000,512.000000) scale(0.100000,-0.100000)"
fill="#000000" stroke="none">
<path d="M1723 5105 c-112 -31 -231 -116 -284 -202 l-21 -34 -27 23 c-51 47
-123 68 -214 64 -125 -5 -240 -95 -277 -214 -23 -74 -25 -114 -8 -180 22 -91
85 -167 174 -212 40 -20 64 -24 134 -24 89 -1 150 19 198 64 21 20 21 20 32
-1 9 -16 8 -24 -3 -37 -69 -79 -85 -257 -31 -337 20 -28 18 -32 -23 -52 -52
-24 -114 -88 -143 -148 -34 -71 -34 -198 0 -270 44 -91 140 -164 235 -179 21
-4 40 -8 42 -10 5 -5 4 -410 -2 -526 -5 -109 -14 -249 -20 -300 -3 -19 -7 -60
-10 -90 -5 -51 -18 -158 -30 -255 -5 -35 -16 -100 -29 -170 -2 -11 -7 -40 -12
-65 -4 -25 -8 -47 -9 -50 -5 -24 -18 -89 -21 -108 -7 -34 -72 -279 -93 -347
-68 -219 -181 -472 -283 -633 -95 -152 -110 -168 -162 -175 -101 -14 -200 -88
-246 -183 -34 -70 -34 -198 0 -269 41 -84 110 -142 209 -174 25 -8 550 -10
1860 -9 l1826 3 50 25 c65 32 124 92 155 155 34 72 35 200 1 267 -54 106 -138
167 -254 185 -42 7 -49 13 -111 107 -129 194 -230 406 -306 641 -18 55 -35
107 -38 115 -3 8 -6 20 -8 25 -49 188 -65 252 -69 278 -3 18 -12 59 -19 92 -8
33 -17 83 -22 110 -4 28 -8 57 -10 65 -1 8 -5 33 -9 56 -3 22 -8 52 -10 65 -9
56 -26 205 -39 334 -4 39 -14 172 -22 305 -5 80 -6 521 -1 526 2 2 21 6 43 10
94 14 190 88 233 178 73 157 3 351 -153 424 -60 29 -75 30 -281 31 l-180 1 0
83 c-1 120 -30 190 -115 276 -49 50 -80 72 -125 89 -122 46 -247 38 -346 -21
l-54 -33 0 86 c0 70 -5 94 -25 134 -33 65 -94 126 -155 156 -70 33 -200 35
-263 3 -39 -20 -44 -20 -48 -5 -19 58 -79 164 -116 201 -53 55 -127 103 -193
125 -70 24 -207 29 -272 11z m932 -927 c-11 -51 -20 -53 -29 -6 -4 25 4 35 27
37 5 1 5 -14 2 -31z m-5 -168 c0 -5 -5 -10 -11 -10 -5 0 -7 5 -4 10 3 6 8 10
11 10 2 0 4 -4 4 -10z"/>
<path d="M489 4462 c-102 -50 -116 -193 -26 -266 33 -26 47 -31 96 -31 48 0
64 5 94 28 47 36 59 59 63 123 2 45 -1 58 -27 94 -48 66 -127 87 -200 52z"/>
</g>
</svg>
